<?xml version="1.0" standalone="no"?>
<!DOCTYPE svg PUBLIC "-//W3C//DTD SVG 20010904//EN"
 "http://www.w3.org/TR/2001/REC-SVG-20010904/DTD/svg10.dtd">
<svg version="1.0" xmlns="http://www.w3.org/2000/svg"
 width="347.000000pt" height="347.000000pt" viewBox="0 0 347.000000 347.000000"
 preserveAspectRatio="xMidYMid meet">
<metadata>
Created by potrace 1.14, written by Peter Selinger 2001-2017
</metadata>
<g transform="translate(0.000000,347.000000) scale(0.100000,-0.100000)"
fill="#000000" stroke="none">
<path d="M1381 3440 c-62 -29 -148 -121 -237 -257 -86 -129 -87 -131 -124
-138 -118 -24 -152 -43 -164 -90 -8 -33 -135 -131 -201 -156 -48 -18 -59 -27
-85 -72 -16 -29 -30 -59 -30 -68 0 -9 -30 -60 -66 -115 -369 -557 -347 -1261
55 -1781 226 -293 539 -488 911 -569 122 -27 468 -27 590 0 369 80 687 279
911 569 356 460 417 1075 158 1603 -27 55 -58 127 -69 159 -25 72 -46 105 -66
105 -13 0 -13 2 -2 13 15 15 49 31 61 29 4 -1 7 5 7 13 0 8 -4 15 -10 15 -5 0
-9 4 -7 8 1 4 -10 19 -25 33 -28 26 -30 69 -3 69 8 0 17 9 20 20 3 11 12 20
20 20 17 0 29 48 16 64 -6 7 -8 16 -5 19 3 3 -9 10 -27 15 -19 5 -35 5 -37 0
-2 -4 -10 -8 -17 -8 -8 0 -17 -9 -20 -20 -3 -11 -13 -20 -21 -20 -8 0 -14 -4
-14 -9 0 -5 -16 -4 -35 2 -23 7 -34 15 -31 24 3 8 -7 16 -27 21 -41 11 -43 10
-51 -33 -6 -31 -10 -35 -29 -29 -60 19 -67 24 -67 51 0 35 -28 95 -71 154 -71
96 -290 277 -376 310 -20 7 -30 6 -45 -8 -24 -21 -74 -110 -83 -145 -9 -35
-13 -35 -50 3 -36 37 -95 69 -127 69 -13 0 -34 -7 -47 -16 -20 -14 -28 -15
-62 -4 -33 11 -50 11 -107 -2 -37 -8 -75 -18 -84 -23 -15 -6 -18 -1 -18 31 -1
50 -31 118 -64 139 -40 26 -95 28 -145 5z m1627 -536 c14 -15 14 -17 -1 -26
-9 -5 -17 -16 -17 -23 0 -8 -6 -15 -14 -15 -8 0 -17 -7 -20 -16 -3 -8 -10 -13
-15 -9 -5 3 -13 -4 -16 -16 -5 -14 -2 -25 6 -30 8 -5 10 -9 6 -9 -5 0 1 -12
11 -28 16 -22 18 -31 8 -44 -13 -18 -91 -42 -112 -34 -8 3 -14 2 -14 -3 0 -5
-21 -14 -47 -22 -27 -7 -62 -20 -80 -30 -37 -21 -45 -16 -32 18 5 13 11 38 14
55 7 36 22 68 34 68 5 0 21 35 36 78 16 42 29 78 30 80 5 7 64 -21 62 -30 -1
-6 12 -17 30 -24 29 -12 32 -12 38 6 4 11 13 20 21 20 8 0 14 5 14 10 0 6 7
10 15 10 8 0 15 7 15 15 0 19 7 19 28 -1z m-871 -1070 c15 -4 53 -3 85 2 l58
10 0 -31 c0 -21 12 -47 36 -78 31 -40 35 -49 23 -63 -24 -29 -21 -53 11 -69
16 -8 35 -15 42 -15 23 -1 46 -43 37 -67 -6 -16 -19 -23 -51 -27 -78 -11 -318
-14 -324 -5 -3 5 13 9 35 9 34 0 47 7 91 50 28 28 57 50 64 50 6 0 12 10 13
21 2 17 -1 19 -10 10 -18 -18 -29 -13 -17 9 6 11 8 31 4 45 -5 21 -3 25 17 25
13 0 31 5 39 11 11 8 7 9 -16 4 -25 -5 -37 -1 -59 19 -38 36 -90 34 -170 -4
-34 -16 -68 -37 -75 -45 -7 -9 5 -5 31 9 65 35 103 43 49 10 -25 -15 -47 -31
-48 -36 -2 -4 -8 -6 -13 -2 -5 3 -9 0 -9 -6 0 -6 -3 -9 -7 -7 -5 3 -8 -31 -8
-76 0 -80 0 -81 -32 -99 -36 -22 -43 -35 -34 -62 7 -17 8 -17 24 -2 9 10 17
14 17 10 0 -3 6 -1 14 5 17 14 22 7 24 -33 1 -16 8 -37 16 -45 7 -9 16 -28 20
-42 7 -30 86 -119 106 -119 7 0 21 -7 31 -16 12 -11 25 -14 36 -9 10 5 23 7
28 6 6 -2 18 -4 28 -6 24 -5 37 -14 37 -27 0 -16 -96 -1 -141 23 -21 10 -45
19 -53 19 -8 0 -29 12 -48 27 -18 15 -27 20 -19 10 13 -16 11 -16 -25 -1 -70
27 -102 47 -97 59 4 13 -25 27 -89 44 -34 8 -38 7 -38 -10 0 -10 -6 -19 -14
-19 -7 0 -27 -7 -42 -15 -16 -8 -41 -15 -56 -15 -15 0 -42 -9 -60 -20 -18 -11
-45 -20 -60 -20 -16 0 -37 -9 -48 -20 -15 -15 -20 -16 -20 -6 0 17 51 56 74
56 9 0 15 3 15 8 -3 18 3 32 31 67 16 20 27 42 23 48 -3 6 -1 7 6 3 6 -4 14 0
17 9 9 23 -31 99 -58 113 -19 9 -20 11 -5 11 10 1 15 6 12 11 -3 6 5 10 19 10
28 0 56 24 56 48 1 14 5 12 20 -7 22 -26 26 -21 9 12 -7 12 -12 34 -11 49 0
15 -4 28 -9 28 -6 0 -30 19 -55 42 -63 59 -91 69 -161 58 -60 -10 -103 -44
-82 -65 5 -5 9 -19 9 -31 0 -13 5 -26 10 -29 6 -4 8 -10 6 -14 -3 -3 11 -17
29 -30 20 -13 36 -35 40 -51 4 -20 11 -27 22 -23 12 5 12 7 1 14 -7 5 -8 9 -3
9 6 0 17 -5 25 -10 11 -7 11 -10 2 -10 -7 0 -11 -4 -7 -10 3 -6 -74 -9 -207
-7 -117 1 -218 -2 -225 -6 -9 -5 -10 -27 -6 -75 6 -66 18 -93 68 -150 20 -24
95 -68 95 -56 0 3 7 -2 16 -10 17 -17 33 -19 138 -16 83 2 87 -17 7 -37 -45
-12 -55 -12 -74 2 -26 18 -46 20 -29 3 23 -23 12 -31 -34 -24 -39 5 -44 4 -35
-8 9 -11 5 -15 -20 -20 -61 -12 -78 -8 -95 25 -9 17 -28 42 -42 55 -15 13 -22
24 -15 24 6 0 15 -4 18 -10 3 -5 26 -22 51 -36 42 -25 46 -25 69 -10 34 22 31
33 -9 40 -19 4 -39 13 -46 21 -6 7 -17 12 -24 9 -6 -2 -25 9 -41 26 -16 16
-39 30 -51 30 -12 0 -25 8 -29 18 -12 27 -5 95 13 122 9 14 16 42 16 62 0 30
4 38 23 43 13 3 29 3 34 -1 6 -3 19 2 29 12 10 11 30 30 45 43 23 21 26 30 21
62 -3 21 -9 44 -12 53 -5 13 1 16 34 16 61 0 146 43 125 63 -3 4 2 7 12 7 10
0 27 7 36 16 23 20 94 35 107 22 7 -7 12 -3 16 9 5 17 46 43 89 57 9 3 43 -4
74 -16 58 -21 145 -26 151 -8 2 6 10 10 18 10 9 0 12 -4 9 -10 -3 -5 0 -10 9
-10 8 0 20 -2 28 -3 7 -2 9 -2 5 1 -14 7 42 32 58 25 9 -3 26 2 38 10 44 28
69 25 109 -15 21 -21 50 -41 65 -44z m-112 -330 c14 -6 12 -10 -12 -25 -37
-25 -43 -24 -30 6 13 27 17 28 42 19z m-448 -57 c18 -17 -27 -110 -64 -134
-15 -10 -32 -23 -38 -29 -35 -39 -121 -42 -215 -6 -74 28 -135 105 -122 154 4
18 12 19 97 15 51 -3 98 -8 104 -11 22 -14 10 -26 -24 -26 -49 0 -48 -31 2
-65 47 -31 63 -31 114 0 43 27 63 65 56 104 -4 22 -3 23 37 17 22 -4 47 -12
53 -19z m542 -25 c25 -4 46 -13 49 -21 3 -10 -3 -12 -27 -9 -41 6 -42 -19 -3
-63 l28 -31 57 12 c61 12 94 41 104 92 5 27 8 28 64 28 58 0 59 -1 59 -27 0
-51 -66 -134 -124 -158 -36 -14 -149 -13 -187 3 -53 21 -97 71 -113 127 -21
69 -21 67 17 60 17 -3 52 -9 76 -13z m-1293 -13 c34 -15 54 -29 57 -43 3 -12
8 -31 12 -43 6 -17 2 -22 -16 -25 -29 -4 -47 -57 -24 -74 8 -6 15 -21 15 -33
0 -11 5 -22 10 -22 6 -1 15 -3 20 -4 6 -1 13 -3 17 -4 3 0 -1 -9 -10 -19 -10
-10 -14 -22 -10 -25 3 -4 -1 -7 -11 -7 -9 0 -14 -4 -11 -10 3 -5 1 -10 -4 -10
-6 0 -11 -7 -11 -15 0 -8 -3 -15 -8 -15 -17 0 -81 51 -87 70 -4 11 -10 18 -14
16 -4 -3 -21 24 -39 58 -24 47 -32 76 -31 112 1 65 9 84 45 99 40 18 42 18
100 -6z m1935 -65 c22 -23 24 -34 23 -111 l-1 -85 -59 -60 c-52 -52 -63 -58
-88 -54 -56 11 -65 55 -20 97 26 25 32 57 11 65 -14 5 -11 31 11 113 7 25 54
59 83 60 8 1 26 -11 40 -25z m-381 -249 c23 -8 54 -15 69 -15 16 0 21 -3 14
-8 -8 -5 19 -18 71 -35 l85 -28 -11 -29 c-5 -17 -15 -30 -22 -30 -6 0 -12 -12
-11 -27 0 -19 14 -42 44 -73 34 -35 40 -46 28 -48 -10 -2 -17 -8 -17 -13 0 -5
-4 -9 -10 -9 -5 0 -10 5 -10 10 0 6 -18 28 -41 49 l-40 40 -46 -29 c-46 -30
-63 -31 -63 -4 0 8 -4 14 -9 14 -5 0 -8 8 -6 18 1 9 -2 23 -7 29 -6 7 -8 20
-4 28 3 9 0 15 -10 15 -10 0 -14 6 -10 15 3 8 1 15 -4 15 -5 0 -12 17 -16 38
-4 20 -10 39 -14 42 -12 8 -22 50 -12 50 5 0 29 -7 52 -15z m-1276 -324 c-3
-39 -10 -71 -15 -71 -4 0 -16 -36 -26 -80 -17 -77 -19 -79 -43 -73 -14 3 -27
9 -30 14 -9 13 -70 18 -70 6 0 -7 -12 -23 -25 -36 -14 -13 -25 -29 -25 -37 0
-18 -6 -18 -29 2 -21 18 -21 19 33 75 21 22 27 35 22 54 -4 14 -11 25 -16 25
-6 0 -10 6 -10 14 0 8 -5 16 -11 18 -18 6 1 37 32 50 16 7 29 16 29 20 0 4 7
5 16 1 9 -3 19 -2 23 3 14 21 65 54 83 54 10 0 28 9 40 20 12 11 23 18 25 16
3 -2 1 -36 -3 -75z"/>
<path d="M1895 1870 c-3 -6 1 -7 9 -4 18 7 21 14 7 14 -6 0 -13 -4 -16 -10z"/>
<path d="M2285 1610 c-3 -5 -1 -10 4 -10 6 0 11 5 11 10 0 6 -2 10 -4 10 -3 0
-8 -4 -11 -10z"/>
<path d="M1685 1540 c-3 -5 -12 -7 -20 -3 -8 3 -15 1 -15 -5 0 -6 -11 -14 -25
-19 l-25 -8 31 -33 c28 -30 31 -38 25 -75 -4 -23 -10 -44 -15 -47 -11 -8 -49
-90 -41 -90 4 0 22 17 41 37 23 26 32 45 31 63 -2 14 6 37 17 51 17 22 18 32
10 69 -5 24 -8 49 -5 57 6 15 0 18 -9 3z"/>
<path d="M1945 1370 c-3 -6 -3 -19 0 -30 4 -12 2 -20 -5 -20 -6 0 -9 -4 -5
-10 13 -21 35 3 32 36 -2 34 -10 43 -22 24z"/>
</g>
</svg>
