<?xml version="1.0" encoding="UTF-8"?><svg id="b" xmlns="http://www.w3.org/2000/svg" width="431.35" height="446.66" viewBox="0 0 431.35 446.66"><g id="c"><path d="M215.67,204.91c9.75,0,17.68,8.26,17.68,18.42s-7.93,18.42-17.68,18.42-17.68-8.26-17.68-18.42,7.93-18.42,17.68-18.42M215.67,201.91c-11.42,0-20.68,9.59-20.68,21.42s9.26,21.42,20.68,21.42,20.68-9.59,20.68-21.42-9.26-21.42-20.68-21.42h0Z" fill="#ffc04f" stroke-width="0"/><path d="M215.67,147.26c40.45,0,73.36,34.13,73.36,76.08s-32.91,76.08-73.36,76.08-73.36-34.13-73.36-76.08,32.91-76.08,73.36-76.08M215.67,144.26c-42.17,0-76.36,35.4-76.36,79.08s34.19,79.08,76.36,79.08,76.36-35.4,76.36-79.08-34.19-79.08-76.36-79.08h0Z" fill="#ffc04f" stroke-width="0"/><path d="M215.67,89.68c34.43,0,66.8,13.89,91.15,39.11,24.38,25.25,37.81,58.82,37.81,94.54s-13.43,69.29-37.81,94.54c-24.35,25.22-56.73,39.11-91.15,39.11s-66.8-13.89-91.15-39.11c-24.38-25.25-37.81-58.82-37.81-94.54s13.43-69.29,37.81-94.54c24.35-25.22,56.73-39.11,91.15-39.11M215.67,86.68c-72.88,0-131.96,61.18-131.96,136.65s59.08,136.65,131.96,136.65,131.96-61.18,131.96-136.65-59.08-136.65-131.96-136.65h0Z" fill="#ffc04f" stroke-width="0"/><path d="M215.67,118.54c55.74,0,101.09,47.01,101.09,104.79s-45.35,104.79-101.09,104.79-101.09-47.01-101.09-104.79,45.35-104.79,101.09-104.79M215.67,115.54c-57.49,0-104.09,48.26-104.09,107.79s46.6,107.79,104.09,107.79,104.09-48.26,104.09-107.79-46.6-107.79-104.09-107.79h0Z" fill="#ffc04f" stroke-width="0"/><path d="M215.67,176.01c25.14,0,45.6,21.23,45.6,47.33s-20.46,47.33-45.6,47.33-45.6-21.23-45.6-47.33,20.46-47.33,45.6-47.33M215.67,173.01c-26.84,0-48.6,22.53-48.6,50.33s21.76,50.33,48.6,50.33,48.6-22.53,48.6-50.33-21.76-50.33-48.6-50.33h0Z" fill="#ffc04f" stroke-width="0"/><path d="M215.67,190.42c17.47,0,31.68,14.77,31.68,32.91s-14.21,32.91-31.68,32.91-31.68-14.77-31.68-32.91,14.21-32.91,31.68-32.91M215.67,187.42c-19.15,0-34.68,16.08-34.68,35.91s15.53,35.91,34.68,35.91,34.68-16.08,34.68-35.91-15.53-35.91-34.68-35.91h0Z" fill="#ffc04f" stroke-width="0"/><path d="M215.67,75.17c38.17,0,74.07,15.4,101.07,43.36,27.03,27.99,41.92,65.21,41.92,104.81s-14.89,76.82-41.92,104.81c-27,27.96-62.9,43.36-101.07,43.36s-74.07-15.4-101.07-43.36c-27.03-27.99-41.92-65.21-41.92-104.81s14.89-76.82,41.92-104.81c27-27.96,62.9-43.36,101.07-43.36M215.67,72.17c-80.62,0-145.98,67.68-145.98,151.17s65.36,151.17,145.98,151.17,145.98-67.68,145.98-151.17-65.36-151.17-145.98-151.17h0Z" fill="#ffc04f" stroke-width="0"/><path d="M215.67,104.09c30.71,0,59.59,12.39,81.31,34.89,21.75,22.53,33.73,52.48,33.73,84.35s-11.98,61.83-33.73,84.35c-21.73,22.5-50.6,34.89-81.31,34.89s-59.59-12.39-81.31-34.89c-21.75-22.53-33.73-52.48-33.73-84.35s11.98-61.83,33.73-84.35c21.73-22.5,50.6-34.89,81.31-34.89M215.67,101.09c-65.2,0-118.05,54.73-118.05,122.24s52.85,122.24,118.05,122.24,118.05-54.73,118.05-122.24-52.85-122.24-118.05-122.24h0Z" fill="#ffc04f" stroke-width="0"/><path d="M215.67,132.84c48.13,0,87.28,40.59,87.28,90.49s-39.15,90.49-87.28,90.49-87.28-40.59-87.28-90.49,39.15-90.49,87.28-90.49M215.67,129.84c-49.86,0-90.28,41.86-90.28,93.49s40.42,93.49,90.28,93.49,90.28-41.86,90.28-93.49-40.42-93.49-90.28-93.49h0Z" fill="#ffc04f" stroke-width="0"/><path d="M215.67,3c28.7,0,56.54,5.82,82.75,17.3,25.32,11.09,48.07,26.97,67.6,47.2,19.54,20.23,34.88,43.8,45.6,70.04,11.1,27.17,16.73,56.04,16.73,85.8s-5.63,58.62-16.73,85.8c-10.72,26.24-26.06,49.8-45.6,70.04-19.53,20.23-42.28,36.11-67.6,47.2-26.21,11.48-54.05,17.3-82.75,17.3s-56.54-5.82-82.75-17.3c-25.32-11.09-48.07-26.97-67.6-47.2-19.54-20.23-34.88-43.8-45.6-70.04-11.1-27.17-16.73-56.04-16.73-85.8s5.63-58.62,16.73-85.8c10.72-26.24,26.06-49.8,45.6-70.04,19.53-20.23,42.28-36.11,67.6-47.2,26.21-11.48,54.05-17.3,82.75-17.3M215.67,0C96.56,0,0,99.99,0,223.33s96.56,223.33,215.67,223.33,215.67-99.99,215.67-223.33S334.79,0,215.67,0h0Z" fill="#ffc04f" stroke-width="0"/><path d="M215.67,60.68c41.91,0,81.31,16.91,110.96,47.6,29.67,30.72,46.01,71.58,46.01,115.05s-16.34,84.32-46.01,115.05c-29.64,30.7-69.05,47.6-110.96,47.6s-81.31-16.91-110.96-47.6c-29.67-30.72-46.01-71.58-46.01-115.05s16.34-84.32,46.01-115.05c29.64-30.7,69.05-47.6,110.96-47.6M215.67,57.68c-88.35,0-159.97,74.16-159.97,165.65s71.62,165.65,159.97,165.65,159.97-74.16,159.97-165.65S304.02,57.68,215.67,57.68h0Z" fill="#ffc04f" stroke-width="0"/><path d="M215.67,46.2c45.64,0,88.56,18.41,120.85,51.84,32.31,33.46,50.11,77.95,50.11,125.29s-17.8,91.83-50.11,125.29c-32.29,33.43-75.2,51.84-120.85,51.84s-88.56-18.41-120.85-51.84c-32.31-33.46-50.11-77.95-50.11-125.29s17.8-91.83,50.11-125.29c32.29-33.43,75.2-51.84,120.85-51.84M215.67,43.2c-96.07,0-173.95,80.65-173.95,180.13s77.88,180.13,173.95,180.13,173.95-80.65,173.95-180.13S311.75,43.2,215.67,43.2h0Z" fill="#ffc04f" stroke-width="0"/><path d="M215.67,31.79c24.95,0,49.14,5.06,71.92,15.04,22.01,9.64,41.78,23.44,58.76,41.03,16.99,17.59,30.33,38.08,39.64,60.89,9.65,23.62,14.54,48.72,14.54,74.59s-4.89,50.97-14.54,74.59c-9.32,22.81-22.66,43.3-39.64,60.89-16.98,17.58-36.75,31.39-58.76,41.03-22.78,9.98-46.98,15.04-71.92,15.04s-49.14-5.06-71.92-15.04c-22.01-9.64-41.78-23.44-58.76-41.03-16.99-17.59-30.33-38.08-39.64-60.89-9.65-23.62-14.54-48.72-14.54-74.59s4.89-50.97,14.54-74.59c9.32-22.81,22.66-43.3,39.64-60.89,16.98-17.58,36.75-31.39,58.76-41.03,22.78-9.98,46.98-15.04,71.92-15.04M215.67,28.79C111.92,28.79,27.8,115.89,27.8,223.33s84.11,194.54,187.87,194.54,187.87-87.1,187.87-194.54S319.43,28.79,215.67,28.79h0Z" fill="#ffc04f" stroke-width="0"/><path d="M215.67,17.36c26.83,0,52.85,5.44,77.35,16.17,23.67,10.37,44.93,25.21,63.19,44.12,18.27,18.92,32.61,40.94,42.63,65.47,10.38,25.4,15.64,52.39,15.64,80.21s-5.26,54.8-15.64,80.21c-10.02,24.53-24.36,46.56-42.63,65.47-18.26,18.91-39.52,33.75-63.19,44.12-24.5,10.73-50.52,16.17-77.35,16.17s-52.85-5.44-77.35-16.17c-23.67-10.37-44.93-25.21-63.19-44.12-18.27-18.92-32.61-40.94-42.63-65.47-10.38-25.4-15.64-52.39-15.64-80.21s5.26-54.8,15.64-80.21c10.02-24.53,24.36-46.56,42.63-65.47,18.26-18.91,39.52-33.75,63.19-44.12,24.5-10.73,50.52-16.17,77.35-16.17M215.67,14.36C104.22,14.36,13.87,107.92,13.87,223.33s90.35,208.97,201.8,208.97,201.8-93.56,201.8-208.97S327.13,14.36,215.67,14.36h0Z" fill="#ffc04f" stroke-width="0"/><path d="M215.67,161.53c32.85,0,59.58,27.72,59.58,61.8s-26.73,61.8-59.58,61.8-59.58-27.72-59.58-61.8,26.73-61.8,59.58-61.8M215.67,158.53c-34.56,0-62.58,29.01-62.58,64.8s28.02,64.8,62.58,64.8,62.58-29.01,62.58-64.8-28.02-64.8-62.58-64.8h0Z" fill="#ffc04f" stroke-width="0"/></g></svg>